solid OpenSCAD_Model
  facet normal -1 0 0
    outer loop
      vertex 0 -10 2.22045e-015
      vertex 0 7.04991e-016 3.175
      vertex 0 0 0
    endloop
  endfacet
  facet normal -1 -0 0
    outer loop
      vertex 0 7.04991e-016 3.175
      vertex 0 -10 2.22045e-015
      vertex 0 -10 3.175
    endloop
  endfacet
  facet normal 0 -1 0
    outer loop
      vertex 0 -10 2.22045e-015
      vertex 3.175 -10 3.175
      vertex 0 -10 3.175
    endloop
  endfacet
  facet normal 0 -1 -0
    outer loop
      vertex 3.175 -10 3.175
      vertex 0 -10 2.22045e-015
      vertex 3.175 -10 2.22045e-015
    endloop
  endfacet
  facet normal 1 -0 0
    outer loop
      vertex 3.175 -10 3.175
      vertex 3.175 0 0
      vertex 3.175 7.04991e-016 3.175
    endloop
  endfacet
  facet normal 1 0 0
    outer loop
      vertex 3.175 0 0
      vertex 3.175 -10 3.175
      vertex 3.175 -10 2.22045e-015
    endloop
  endfacet
  facet normal -0 0 1
    outer loop
      vertex 0 7.04991e-016 3.175
      vertex 3.175 -10 3.175
      vertex 3.175 7.04991e-016 3.175
    endloop
  endfacet
  facet normal 0 0 1
    outer loop
      vertex 3.175 -10 3.175
      vertex 0 7.04991e-016 3.175
      vertex 0 -10 3.175
    endloop
  endfacet
  facet normal 0 1 -2.22045e-016
    outer loop
      vertex 3.175 0 0
      vertex 0 7.04991e-016 3.175
      vertex 3.175 7.04991e-016 3.175
    endloop
  endfacet
  facet normal 0 1 -2.22045e-016
    outer loop
      vertex 0 7.04991e-016 3.175
      vertex 3.175 0 0
      vertex 0 0 0
    endloop
  endfacet
  facet normal 0 -2.22045e-016 -1
    outer loop
      vertex 0 -10 2.22045e-015
      vertex 3.175 0 0
      vertex 3.175 -10 2.22045e-015
    endloop
  endfacet
  facet normal -0 -2.22045e-016 -1
    outer loop
      vertex 3.175 0 0
      vertex 0 -10 2.22045e-015
      vertex 0 0 0
    endloop
  endfacet
  facet normal -1 0 0
    outer loop
      vertex 5 -10 2.22045e-015
      vertex 5 7.04991e-016 3.175
      vertex 5 0 0
    endloop
  endfacet
  facet normal -1 -0 0
    outer loop
      vertex 5 7.04991e-016 3.175
      vertex 5 -10 2.22045e-015
      vertex 5 -10 3.175
    endloop
  endfacet
  facet normal 0 -1 0
    outer loop
      vertex 5 -10 2.22045e-015
      vertex 8.175 -10 3.175
      vertex 5 -10 3.175
    endloop
  endfacet
  facet normal 0 -1 -0
    outer loop
      vertex 8.175 -10 3.175
      vertex 5 -10 2.22045e-015
      vertex 8.175 -10 2.22045e-015
    endloop
  endfacet
  facet normal 1 -0 0
    outer loop
      vertex 8.175 -10 3.175
      vertex 8.175 0 0
      vertex 8.175 7.04991e-016 3.175
    endloop
  endfacet
  facet normal 1 0 0
    outer loop
      vertex 8.175 0 0
      vertex 8.175 -10 3.175
      vertex 8.175 -10 2.22045e-015
    endloop
  endfacet
  facet normal 0 1 -2.22045e-016
    outer loop
      vertex 8.175 0 0
      vertex 5 7.04991e-016 3.175
      vertex 8.175 7.04991e-016 3.175
    endloop
  endfacet
  facet normal 0 1 -2.22045e-016
    outer loop
      vertex 5 7.04991e-016 3.175
      vertex 8.175 0 0
      vertex 5 0 0
    endloop
  endfacet
  facet normal 0 -2.22045e-016 -1
    outer loop
      vertex 5 -10 2.22045e-015
      vertex 8.175 0 0
      vertex 8.175 -10 2.22045e-015
    endloop
  endfacet
  facet normal -0 -2.22045e-016 -1
    outer loop
      vertex 8.175 0 0
      vertex 5 -10 2.22045e-015
      vertex 5 0 0
    endloop
  endfacet
  facet normal -0 0 1
    outer loop
      vertex 5 7.04991e-016 3.175
      vertex 8.175 -10 3.175
      vertex 8.175 7.04991e-016 3.175
    endloop
  endfacet
  facet normal 0 0 1
    outer loop
      vertex 8.175 -10 3.175
      vertex 5 7.04991e-016 3.175
      vertex 5 -10 3.175
    endloop
  endfacet
  facet normal -1 0 0
    outer loop
      vertex 10 -10 2.22045e-015
      vertex 10 7.04991e-016 3.175
      vertex 10 0 0
    endloop
  endfacet
  facet normal -1 -0 0
    outer loop
      vertex 10 7.04991e-016 3.175
      vertex 10 -10 2.22045e-015
      vertex 10 -10 3.175
    endloop
  endfacet
  facet normal 0 -1 0
    outer loop
      vertex 10 -10 2.22045e-015
      vertex 13.175 -10 3.175
      vertex 10 -10 3.175
    endloop
  endfacet
  facet normal 0 -1 -0
    outer loop
      vertex 13.175 -10 3.175
      vertex 10 -10 2.22045e-015
      vertex 13.175 -10 2.22045e-015
    endloop
  endfacet
  facet normal 1 -0 0
    outer loop
      vertex 13.175 -10 3.175
      vertex 13.175 0 0
      vertex 13.175 7.04991e-016 3.175
    endloop
  endfacet
  facet normal 1 0 0
    outer loop
      vertex 13.175 0 0
      vertex 13.175 -10 3.175
      vertex 13.175 -10 2.22045e-015
    endloop
  endfacet
  facet normal 0 1 -2.22045e-016
    outer loop
      vertex 13.175 0 0
      vertex 10 7.04991e-016 3.175
      vertex 13.175 7.04991e-016 3.175
    endloop
  endfacet
  facet normal 0 1 -2.22045e-016
    outer loop
      vertex 10 7.04991e-016 3.175
      vertex 13.175 0 0
      vertex 10 0 0
    endloop
  endfacet
  facet normal 0 -2.22045e-016 -1
    outer loop
      vertex 10 -10 2.22045e-015
      vertex 13.175 0 0
      vertex 13.175 -10 2.22045e-015
    endloop
  endfacet
  facet normal -0 -2.22045e-016 -1
    outer loop
      vertex 13.175 0 0
      vertex 10 -10 2.22045e-015
      vertex 10 0 0
    endloop
  endfacet
  facet normal -0 0 1
    outer loop
      vertex 10 7.04991e-016 3.175
      vertex 13.175 -10 3.175
      vertex 13.175 7.04991e-016 3.175
    endloop
  endfacet
  facet normal 0 0 1
    outer loop
      vertex 13.175 -10 3.175
      vertex 10 7.04991e-016 3.175
      vertex 10 -10 3.175
    endloop
  endfacet
  facet normal -1 0 0
    outer loop
      vertex 15 -10 2.22045e-015
      vertex 15 7.04991e-016 3.175
      vertex 15 0 0
    endloop
  endfacet
  facet normal -1 -0 0
    outer loop
      vertex 15 7.04991e-016 3.175
      vertex 15 -10 2.22045e-015
      vertex 15 -10 3.175
    endloop
  endfacet
  facet normal 0 -1 0
    outer loop
      vertex 15 -10 2.22045e-015
      vertex 18.175 -10 3.175
      vertex 15 -10 3.175
    endloop
  endfacet
  facet normal 0 -1 -0
    outer loop
      vertex 18.175 -10 3.175
      vertex 15 -10 2.22045e-015
      vertex 18.175 -10 2.22045e-015
    endloop
  endfacet
  facet normal 1 -0 0
    outer loop
      vertex 18.175 -10 3.175
      vertex 18.175 0 0
      vertex 18.175 7.04991e-016 3.175
    endloop
  endfacet
  facet normal 1 0 0
    outer loop
      vertex 18.175 0 0
      vertex 18.175 -10 3.175
      vertex 18.175 -10 2.22045e-015
    endloop
  endfacet
  facet normal -0 0 1
    outer loop
      vertex 15 7.04991e-016 3.175
      vertex 18.175 -10 3.175
      vertex 18.175 7.04991e-016 3.175
    endloop
  endfacet
  facet normal 0 0 1
    outer loop
      vertex 18.175 -10 3.175
      vertex 15 7.04991e-016 3.175
      vertex 15 -10 3.175
    endloop
  endfacet
  facet normal 0 1 -2.22045e-016
    outer loop
      vertex 18.175 0 0
      vertex 15 7.04991e-016 3.175
      vertex 18.175 7.04991e-016 3.175
    endloop
  endfacet
  facet normal 0 1 -2.22045e-016
    outer loop
      vertex 15 7.04991e-016 3.175
      vertex 18.175 0 0
      vertex 15 0 0
    endloop
  endfacet
  facet normal 0 -2.22045e-016 -1
    outer loop
      vertex 15 -10 2.22045e-015
      vertex 18.175 0 0
      vertex 18.175 -10 2.22045e-015
    endloop
  endfacet
  facet normal -0 -2.22045e-016 -1
    outer loop
      vertex 18.175 0 0
      vertex 15 -10 2.22045e-015
      vertex 15 0 0
    endloop
  endfacet
endsolid OpenSCAD_Model
