solid OpenSCAD_Model
  facet normal -1 0 0
    outer loop
      vertex 0 -8 1.77636e-015
      vertex 0 6.82787e-016 3.075
      vertex 0 0 0
    endloop
  endfacet
  facet normal -1 -0 0
    outer loop
      vertex 0 6.82787e-016 3.075
      vertex 0 -8 1.77636e-015
      vertex 0 -8 3.075
    endloop
  endfacet
  facet normal 0 -1 0
    outer loop
      vertex 0 -8 1.77636e-015
      vertex 3.075 -8 3.075
      vertex 0 -8 3.075
    endloop
  endfacet
  facet normal 0 -1 -0
    outer loop
      vertex 3.075 -8 3.075
      vertex 0 -8 1.77636e-015
      vertex 3.075 -8 1.77636e-015
    endloop
  endfacet
  facet normal 1 -0 0
    outer loop
      vertex 3.075 -8 3.075
      vertex 3.075 0 0
      vertex 3.075 6.82787e-016 3.075
    endloop
  endfacet
  facet normal 1 0 0
    outer loop
      vertex 3.075 0 0
      vertex 3.075 -8 3.075
      vertex 3.075 -8 1.77636e-015
    endloop
  endfacet
  facet normal -0 0 1
    outer loop
      vertex 0 6.82787e-016 3.075
      vertex 3.075 -8 3.075
      vertex 3.075 6.82787e-016 3.075
    endloop
  endfacet
  facet normal 0 0 1
    outer loop
      vertex 3.075 -8 3.075
      vertex 0 6.82787e-016 3.075
      vertex 0 -8 3.075
    endloop
  endfacet
  facet normal 0 1 -2.22045e-016
    outer loop
      vertex 3.075 0 0
      vertex 0 6.82787e-016 3.075
      vertex 3.075 6.82787e-016 3.075
    endloop
  endfacet
  facet normal 0 1 -2.22045e-016
    outer loop
      vertex 0 6.82787e-016 3.075
      vertex 3.075 0 0
      vertex 0 0 0
    endloop
  endfacet
  facet normal 0 -2.22045e-016 -1
    outer loop
      vertex 0 -8 1.77636e-015
      vertex 3.075 0 0
      vertex 3.075 -8 1.77636e-015
    endloop
  endfacet
  facet normal -0 -2.22045e-016 -1
    outer loop
      vertex 3.075 0 0
      vertex 0 -8 1.77636e-015
      vertex 0 0 0
    endloop
  endfacet
  facet normal -1 0 0
    outer loop
      vertex 7 -8 1.77636e-015
      vertex 7 6.82787e-016 3.075
      vertex 7 0 0
    endloop
  endfacet
  facet normal -1 -0 0
    outer loop
      vertex 7 6.82787e-016 3.075
      vertex 7 -8 1.77636e-015
      vertex 7 -8 3.075
    endloop
  endfacet
  facet normal 0 -1 0
    outer loop
      vertex 7 -8 1.77636e-015
      vertex 10.075 -8 3.075
      vertex 7 -8 3.075
    endloop
  endfacet
  facet normal 0 -1 -0
    outer loop
      vertex 10.075 -8 3.075
      vertex 7 -8 1.77636e-015
      vertex 10.075 -8 1.77636e-015
    endloop
  endfacet
  facet normal 1 -0 0
    outer loop
      vertex 10.075 -8 3.075
      vertex 10.075 0 0
      vertex 10.075 6.82787e-016 3.075
    endloop
  endfacet
  facet normal 1 0 0
    outer loop
      vertex 10.075 0 0
      vertex 10.075 -8 3.075
      vertex 10.075 -8 1.77636e-015
    endloop
  endfacet
  facet normal -0 0 1
    outer loop
      vertex 7 6.82787e-016 3.075
      vertex 10.075 -8 3.075
      vertex 10.075 6.82787e-016 3.075
    endloop
  endfacet
  facet normal 0 0 1
    outer loop
      vertex 10.075 -8 3.075
      vertex 7 6.82787e-016 3.075
      vertex 7 -8 3.075
    endloop
  endfacet
  facet normal 0 1 -2.22045e-016
    outer loop
      vertex 10.075 0 0
      vertex 7 6.82787e-016 3.075
      vertex 10.075 6.82787e-016 3.075
    endloop
  endfacet
  facet normal 0 1 -2.22045e-016
    outer loop
      vertex 7 6.82787e-016 3.075
      vertex 10.075 0 0
      vertex 7 0 0
    endloop
  endfacet
  facet normal 0 -2.22045e-016 -1
    outer loop
      vertex 7 -8 1.77636e-015
      vertex 10.075 0 0
      vertex 10.075 -8 1.77636e-015
    endloop
  endfacet
  facet normal -0 -2.22045e-016 -1
    outer loop
      vertex 10.075 0 0
      vertex 7 -8 1.77636e-015
      vertex 7 0 0
    endloop
  endfacet
  facet normal -1 0 0
    outer loop
      vertex 14 -8 1.77636e-015
      vertex 14 6.82787e-016 3.075
      vertex 14 0 0
    endloop
  endfacet
  facet normal -1 -0 0
    outer loop
      vertex 14 6.82787e-016 3.075
      vertex 14 -8 1.77636e-015
      vertex 14 -8 3.075
    endloop
  endfacet
  facet normal 0 -1 0
    outer loop
      vertex 14 -8 1.77636e-015
      vertex 17.075 -8 3.075
      vertex 14 -8 3.075
    endloop
  endfacet
  facet normal 0 -1 -0
    outer loop
      vertex 17.075 -8 3.075
      vertex 14 -8 1.77636e-015
      vertex 17.075 -8 1.77636e-015
    endloop
  endfacet
  facet normal 1 -0 0
    outer loop
      vertex 17.075 -8 3.075
      vertex 17.075 0 0
      vertex 17.075 6.82787e-016 3.075
    endloop
  endfacet
  facet normal 1 0 0
    outer loop
      vertex 17.075 0 0
      vertex 17.075 -8 3.075
      vertex 17.075 -8 1.77636e-015
    endloop
  endfacet
  facet normal 0 1 -2.22045e-016
    outer loop
      vertex 17.075 0 0
      vertex 14 6.82787e-016 3.075
      vertex 17.075 6.82787e-016 3.075
    endloop
  endfacet
  facet normal 0 1 -2.22045e-016
    outer loop
      vertex 14 6.82787e-016 3.075
      vertex 17.075 0 0
      vertex 14 0 0
    endloop
  endfacet
  facet normal 0 -2.22045e-016 -1
    outer loop
      vertex 14 -8 1.77636e-015
      vertex 17.075 0 0
      vertex 17.075 -8 1.77636e-015
    endloop
  endfacet
  facet normal -0 -2.22045e-016 -1
    outer loop
      vertex 17.075 0 0
      vertex 14 -8 1.77636e-015
      vertex 14 0 0
    endloop
  endfacet
  facet normal -0 0 1
    outer loop
      vertex 14 6.82787e-016 3.075
      vertex 17.075 -8 3.075
      vertex 17.075 6.82787e-016 3.075
    endloop
  endfacet
  facet normal 0 0 1
    outer loop
      vertex 17.075 -8 3.075
      vertex 14 6.82787e-016 3.075
      vertex 14 -8 3.075
    endloop
  endfacet
  facet normal -1 0 0
    outer loop
      vertex 21 -8 1.77636e-015
      vertex 21 6.82787e-016 3.075
      vertex 21 0 0
    endloop
  endfacet
  facet normal -1 -0 0
    outer loop
      vertex 21 6.82787e-016 3.075
      vertex 21 -8 1.77636e-015
      vertex 21 -8 3.075
    endloop
  endfacet
  facet normal 0 -1 0
    outer loop
      vertex 21 -8 1.77636e-015
      vertex 24.075 -8 3.075
      vertex 21 -8 3.075
    endloop
  endfacet
  facet normal 0 -1 -0
    outer loop
      vertex 24.075 -8 3.075
      vertex 21 -8 1.77636e-015
      vertex 24.075 -8 1.77636e-015
    endloop
  endfacet
  facet normal 1 -0 0
    outer loop
      vertex 24.075 -8 3.075
      vertex 24.075 0 0
      vertex 24.075 6.82787e-016 3.075
    endloop
  endfacet
  facet normal 1 0 0
    outer loop
      vertex 24.075 0 0
      vertex 24.075 -8 3.075
      vertex 24.075 -8 1.77636e-015
    endloop
  endfacet
  facet normal -0 0 1
    outer loop
      vertex 21 6.82787e-016 3.075
      vertex 24.075 -8 3.075
      vertex 24.075 6.82787e-016 3.075
    endloop
  endfacet
  facet normal 0 0 1
    outer loop
      vertex 24.075 -8 3.075
      vertex 21 6.82787e-016 3.075
      vertex 21 -8 3.075
    endloop
  endfacet
  facet normal 0 1 -2.22045e-016
    outer loop
      vertex 24.075 0 0
      vertex 21 6.82787e-016 3.075
      vertex 24.075 6.82787e-016 3.075
    endloop
  endfacet
  facet normal 0 1 -2.22045e-016
    outer loop
      vertex 21 6.82787e-016 3.075
      vertex 24.075 0 0
      vertex 21 0 0
    endloop
  endfacet
  facet normal 0 -2.22045e-016 -1
    outer loop
      vertex 21 -8 1.77636e-015
      vertex 24.075 0 0
      vertex 24.075 -8 1.77636e-015
    endloop
  endfacet
  facet normal -0 -2.22045e-016 -1
    outer loop
      vertex 24.075 0 0
      vertex 21 -8 1.77636e-015
      vertex 21 0 0
    endloop
  endfacet
  facet normal -1 0 0
    outer loop
      vertex 28 -8 1.77636e-015
      vertex 28 6.82787e-016 3.075
      vertex 28 0 0
    endloop
  endfacet
  facet normal -1 -0 0
    outer loop
      vertex 28 6.82787e-016 3.075
      vertex 28 -8 1.77636e-015
      vertex 28 -8 3.075
    endloop
  endfacet
  facet normal 0 -1 0
    outer loop
      vertex 28 -8 1.77636e-015
      vertex 31.075 -8 3.075
      vertex 28 -8 3.075
    endloop
  endfacet
  facet normal 0 -1 -0
    outer loop
      vertex 31.075 -8 3.075
      vertex 28 -8 1.77636e-015
      vertex 31.075 -8 1.77636e-015
    endloop
  endfacet
  facet normal 1 -0 0
    outer loop
      vertex 31.075 -8 3.075
      vertex 31.075 0 0
      vertex 31.075 6.82787e-016 3.075
    endloop
  endfacet
  facet normal 1 0 0
    outer loop
      vertex 31.075 0 0
      vertex 31.075 -8 3.075
      vertex 31.075 -8 1.77636e-015
    endloop
  endfacet
  facet normal 0 1 -2.22045e-016
    outer loop
      vertex 31.075 0 0
      vertex 28 6.82787e-016 3.075
      vertex 31.075 6.82787e-016 3.075
    endloop
  endfacet
  facet normal 0 1 -2.22045e-016
    outer loop
      vertex 28 6.82787e-016 3.075
      vertex 31.075 0 0
      vertex 28 0 0
    endloop
  endfacet
  facet normal 0 -2.22045e-016 -1
    outer loop
      vertex 28 -8 1.77636e-015
      vertex 31.075 0 0
      vertex 31.075 -8 1.77636e-015
    endloop
  endfacet
  facet normal -0 -2.22045e-016 -1
    outer loop
      vertex 31.075 0 0
      vertex 28 -8 1.77636e-015
      vertex 28 0 0
    endloop
  endfacet
  facet normal -0 0 1
    outer loop
      vertex 28 6.82787e-016 3.075
      vertex 31.075 -8 3.075
      vertex 31.075 6.82787e-016 3.075
    endloop
  endfacet
  facet normal 0 0 1
    outer loop
      vertex 31.075 -8 3.075
      vertex 28 6.82787e-016 3.075
      vertex 28 -8 3.075
    endloop
  endfacet
  facet normal -1 0 0
    outer loop
      vertex 35 -8 1.77636e-015
      vertex 35 6.82787e-016 3.075
      vertex 35 0 0
    endloop
  endfacet
  facet normal -1 -0 0
    outer loop
      vertex 35 6.82787e-016 3.075
      vertex 35 -8 1.77636e-015
      vertex 35 -8 3.075
    endloop
  endfacet
  facet normal 0 -1 0
    outer loop
      vertex 35 -8 1.77636e-015
      vertex 38.075 -8 3.075
      vertex 35 -8 3.075
    endloop
  endfacet
  facet normal 0 -1 -0
    outer loop
      vertex 38.075 -8 3.075
      vertex 35 -8 1.77636e-015
      vertex 38.075 -8 1.77636e-015
    endloop
  endfacet
  facet normal 1 -0 0
    outer loop
      vertex 38.075 -8 3.075
      vertex 38.075 0 0
      vertex 38.075 6.82787e-016 3.075
    endloop
  endfacet
  facet normal 1 0 0
    outer loop
      vertex 38.075 0 0
      vertex 38.075 -8 3.075
      vertex 38.075 -8 1.77636e-015
    endloop
  endfacet
  facet normal 0 1 -2.22045e-016
    outer loop
      vertex 38.075 0 0
      vertex 35 6.82787e-016 3.075
      vertex 38.075 6.82787e-016 3.075
    endloop
  endfacet
  facet normal 0 1 -2.22045e-016
    outer loop
      vertex 35 6.82787e-016 3.075
      vertex 38.075 0 0
      vertex 35 0 0
    endloop
  endfacet
  facet normal 0 -2.22045e-016 -1
    outer loop
      vertex 35 -8 1.77636e-015
      vertex 38.075 0 0
      vertex 38.075 -8 1.77636e-015
    endloop
  endfacet
  facet normal -0 -2.22045e-016 -1
    outer loop
      vertex 38.075 0 0
      vertex 35 -8 1.77636e-015
      vertex 35 0 0
    endloop
  endfacet
  facet normal -0 0 1
    outer loop
      vertex 35 6.82787e-016 3.075
      vertex 38.075 -8 3.075
      vertex 38.075 6.82787e-016 3.075
    endloop
  endfacet
  facet normal 0 0 1
    outer loop
      vertex 38.075 -8 3.075
      vertex 35 6.82787e-016 3.075
      vertex 35 -8 3.075
    endloop
  endfacet
  facet normal -1 0 0
    outer loop
      vertex 42 -8 1.77636e-015
      vertex 42 6.82787e-016 3.075
      vertex 42 0 0
    endloop
  endfacet
  facet normal -1 -0 0
    outer loop
      vertex 42 6.82787e-016 3.075
      vertex 42 -8 1.77636e-015
      vertex 42 -8 3.075
    endloop
  endfacet
  facet normal 0 -1 0
    outer loop
      vertex 42 -8 1.77636e-015
      vertex 45.075 -8 3.075
      vertex 42 -8 3.075
    endloop
  endfacet
  facet normal 0 -1 -0
    outer loop
      vertex 45.075 -8 3.075
      vertex 42 -8 1.77636e-015
      vertex 45.075 -8 1.77636e-015
    endloop
  endfacet
  facet normal 1 -0 0
    outer loop
      vertex 45.075 -8 3.075
      vertex 45.075 0 0
      vertex 45.075 6.82787e-016 3.075
    endloop
  endfacet
  facet normal 1 0 0
    outer loop
      vertex 45.075 0 0
      vertex 45.075 -8 3.075
      vertex 45.075 -8 1.77636e-015
    endloop
  endfacet
  facet normal 0 1 -2.22045e-016
    outer loop
      vertex 45.075 0 0
      vertex 42 6.82787e-016 3.075
      vertex 45.075 6.82787e-016 3.075
    endloop
  endfacet
  facet normal 0 1 -2.22045e-016
    outer loop
      vertex 42 6.82787e-016 3.075
      vertex 45.075 0 0
      vertex 42 0 0
    endloop
  endfacet
  facet normal 0 -2.22045e-016 -1
    outer loop
      vertex 42 -8 1.77636e-015
      vertex 45.075 0 0
      vertex 45.075 -8 1.77636e-015
    endloop
  endfacet
  facet normal -0 -2.22045e-016 -1
    outer loop
      vertex 45.075 0 0
      vertex 42 -8 1.77636e-015
      vertex 42 0 0
    endloop
  endfacet
  facet normal -0 0 1
    outer loop
      vertex 42 6.82787e-016 3.075
      vertex 45.075 -8 3.075
      vertex 45.075 6.82787e-016 3.075
    endloop
  endfacet
  facet normal 0 0 1
    outer loop
      vertex 45.075 -8 3.075
      vertex 42 6.82787e-016 3.075
      vertex 42 -8 3.075
    endloop
  endfacet
endsolid OpenSCAD_Model
